<svg xmlns="http://www.w3.org/2000/svg" xml:space="preserve" width="320" height="320" version="1.0" style="shape-rendering:geometricPrecision;text-rendering:geometricPrecision;image-rendering:optimizeQuality;fill-rule:evenodd;clip-rule:evenodd" viewBox="0 0 3333.33 3333.33"><defs><clipPath id="a"><path d="M0 0h3333.33v3333.33H0V0z"/></clipPath></defs><g/><g style="clip-path:url(#a)"><path d="M1896.81 13.58c-130.52 21.28-195.78 36.89-262.46 62.43-85.13 34.05-242.6 120.59-312.12 171.67-70.94 52.49-245.44 228.41-270.98 270.98-7.09 12.77-482.37 285.17-1054.12 605.8-573.17 322.06-1037.09 584.52-1031.41 584.52 7.09 0 134.78-62.43 283.75-140.46 658.29-340.5 1657.07-841.3 1664.17-834.21 2.84 4.25 2.84 19.86-1.42 34.05-8.52 26.96-73.77 63.85-1299.56 746.25-378.8 209.97-693.76 388.73-702.27 397.25-14.19 12.77 299.35-143.3 1415.89-713.62 279.49-141.87 510.74-256.79 513.58-253.95 2.84 2.84-2.84 53.91-11.35 113.5l-15.61 107.82-141.87 79.45c-79.45 42.56-337.66 184.44-576 314.96-238.35 130.52-557.56 306.44-709.37 390.15-151.8 83.71-346.17 188.69-432.71 234.09-85.12 45.4-161.74 87.96-170.24 95.06-15.61 15.61 340.5-163.15 631.33-314.96 104.99-55.33 303.61-158.9 439.81-229.83 136.2-70.94 319.21-164.57 404.34-209.97 557.56-290.83 543.37-283.75 551.89-261.04 4.26 12.77 2.84 32.63-4.26 43.98-7.09 12.77-151.8 100.73-322.05 195.78-171.67 93.63-678.15 374.54-1126.47 622.82-448.32 248.28-885.29 490.88-971.83 539.12-85.13 48.24-173.09 95.06-194.37 106.41-22.7 11.35-36.89 22.7-34.05 25.54 2.84 2.84 39.73-12.77 80.87-35.46 72.36-39.72 1198.83-618.57 2140.87-1100.94 236.93-122.01 435.55-217.07 439.81-209.97 5.67 5.68 17.02 43.98 26.96 86.54 12.77 62.42 12.77 80.87-1.42 93.63-15.61 14.19-1086.75 611.47-1820.23 1014.39-93.63 52.5-346.17 191.53-560.4 310.7-214.22 120.59-438.39 244.02-496.55 275.24-58.17 31.21-112.08 62.42-120.59 70.94-12.77 12.77 669.64-330.56 1064.05-536.28 93.63-48.24 336.24-173.09 539.12-276.65 202.88-103.57 458.25-234.09 567.49-290.84 807.26-417.11 873.94-449.74 893.8-432.71 11.35 9.93 21.28 22.7 21.28 29.79 0 5.67-49.65 38.31-109.24 70.94-61 32.63-251.11 137.61-422.78 232.67-171.67 95.06-529.19 293.68-794.49 439.81-459.67 253.95-628.5 346.17-1078.23 595.87-195.78 107.82-794.49 438.39-997.37 549.05-117.76 63.84-137.61 86.54-26.96 31.21 76.61-39.72 995.95-512.16 1733.69-892.38 124.85-63.84 349.01-178.76 496.56-255.37 148.97-76.61 358.94-184.43 468.19-241.18 829.96-428.46 790.23-410.02 811.51-381.64 22.7 31.21 22.7 29.79-109.24 100.73-58.17 31.21-361.77 200.04-673.89 373.13-312.12 174.5-628.5 349-702.27 390.15-73.77 41.15-390.15 215.65-702.27 390.15-312.12 173.09-615.73 341.91-673.89 373.13-58.17 31.21-112.08 62.42-120.59 70.94-12.77 12.77 412.85-201.46 1092.42-550.47 140.45-72.36 507.91-261.05 815.77-418.52 307.87-157.48 696.6-357.52 864.01-442.65l302.19-156.06 70.94 69.52 69.52 69.52-139.04 76.61c-76.61 41.15-208.55 114.92-295.09 163.15-85.13 48.24-248.28 139.04-361.78 201.46-202.88 112.08-1193.15 659.71-1613.09 893.8-238.35 131.94-295.1 174.5-85.13 63.84 70.94-38.31 278.07-144.71 456.83-236.93 180.18-92.22 448.32-229.83 595.87-306.44 585.94-302.19 977.51-502.23 1251.32-641.27 270.98-136.2 289.43-143.3 312.12-120.59 12.77 14.19 21.28 26.96 17.02 31.21-5.67 5.67-719.3 398.67-1310.91 720.72-590.19 323.47-645.52 354.68-645.52 361.77 0 2.84 85.12-38.3 188.69-92.22 102.15-53.91 276.65-144.71 385.89-201.46 109.24-56.75 256.79-133.36 326.31-170.24 419.94-221.32 1125.05-581.68 1134.98-581.68 5.68 0 52.5 19.86 103.57 43.98l92.22 43.98-140.45 78.03c-417.11 234.09-1147.75 641.27-1452.78 810.09-191.53 104.99-353.26 198.62-361.77 205.72-12.77 12.77 875.35-434.13 1291.04-649.78 669.64-347.59 872.52-438.39 872.52-391.57 0 8.51-1472.64 842.72-1808.88 1022.91-46.82 25.54-90.8 52.49-99.31 59.59-14.19 14.19 788.81-390.15 1659.91-835.63 404.34-207.13 463.93-234.09 539.12-239.76 387.31-31.21 742-236.93 966.16-558.98 231.26-331.98 273.81-811.51 106.41-1204.5-122.01-289.42-383.06-544.8-673.9-666.8-198.62-82.29-453.99-113.5-661.13-79.45h-.01zm561.82 99.31c181.6 61 320.63 139.03 394.41 221.32 86.54 96.48 160.31 238.35 133.36 256.79-9.93 5.67-63.84 36.89-119.17 68.1l-102.15 56.75-167.41-72.36c-93.63-39.72-202.87-85.12-244.02-100.73-61-22.7-79.45-38.3-104.99-86.54-15.61-32.63-55.33-100.73-87.96-151.8-32.63-51.07-63.84-99.31-69.52-109.24-11.35-18.44 70.94-66.68 167.41-97.89 78.03-24.12 80.87-24.12 200.04 15.61zM1432.89 322.86c-61 63.85-130.53 147.55-156.06 187.28-24.12 38.31-52.5 78.03-63.84 87.96-129.11 117.76-246.86 231.25-268.14 262.46-38.3 52.5-61 258.21-45.4 404.34 11.35 103.57 0 197.2-26.96 224.16-15.61 15.61-29.79-201.46-19.86-323.47 4.25-63.84 18.44-157.48 29.79-208.55 31.21-131.94 147.55-360.36 239.76-471.02 83.7-100.73 232.67-228.41 334.82-286.58 53.92-31.21 65.26-32.63 75.19-14.19 8.52 15.61-15.61 51.07-99.31 137.61zm588.77-137.62c32.63 9.93 102.15 102.15 185.85 249.7l45.4 80.87-90.8 110.67c-49.66 61-119.17 148.96-156.06 197.2l-65.26 86.54-209.97 11.35c-114.92 5.67-235.51 11.35-266.72 12.77l-56.75 1.42-82.28-158.9-82.29-158.9 51.07-82.29c29.79-45.4 100.73-131.94 160.31-191.53 103.57-106.4 112.08-110.66 208.56-130.52 167.41-36.89 292.26-45.4 358.94-28.38zm1187.48 662.55c62.43 127.69 85.13 278.07 72.36 466.76l-11.35 134.78-103.57 79.45c-58.17 45.4-110.66 80.87-117.76 80.87-7.09 0-18.44-14.19-26.96-32.63-8.52-17.02-66.68-97.89-130.53-178.76l-114.91-148.97 4.25-255.37 2.84-255.37 120.59-68.1 120.59-68.09 66.68 70.94c36.89 39.72 89.38 117.76 117.76 174.5zm-1117.96 323.47 144.71 224.16-32.63 75.19c-18.44 41.15-55.33 123.43-82.28 181.6-26.96 58.17-61 133.36-75.19 165.99-15.61 35.47-38.31 62.43-55.33 66.69-17.02 4.25-130.52 11.35-253.95 17.02l-224.16 9.93-42.56-41.15c-55.33-52.5-151.8-198.62-215.65-326.31l-51.07-100.73 53.91-133.36c29.79-73.77 76.61-178.76 104.99-234.09l51.07-102.15 89.38-9.93c131.94-15.61 367.45-29.79 408.59-22.7 28.38 2.84 65.26 49.65 180.18 229.83h-.01zm777.46 239.76c59.59 73.77 120.59 158.9 136.2 188.69l28.37 52.5-43.98 104.98c-24.11 56.75-76.61 154.65-117.76 215.65-61 93.63-85.12 117.76-144.71 146.13-92.22 42.56-262.46 86.54-360.36 90.8l-78.03 2.84-102.15-126.27c-151.8-188.69-150.38-185.85-110.66-270.98 100.73-215.65 158.9-344.75 167.41-373.13 7.09-19.86 25.54-35.47 48.23-39.72 21.28-4.26 130.53-35.47 244.02-69.52 113.5-32.63 209.97-59.59 215.65-58.17 5.67 0 59.59 62.43 117.76 136.2zm-1742.2 42.56c41.15 0 49.66 9.93 124.85 144.71 80.87 144.71 133.36 221.32 204.3 299.35 34.05 36.89 36.89 49.65 36.89 181.6v140.45h-42.56c-22.7 0-83.71-15.61-134.78-32.63-82.29-28.37-100.73-43.98-181.6-137.61-92.22-110.66-201.46-312.12-232.67-428.46-14.19-56.75-12.77-78.03 7.09-143.3l24.12-76.61 75.19 25.54c39.72 14.19 93.63 25.54 119.17 26.96h.01zm1739.36 686.67 41.15 32.63-97.89 70.94c-204.3 151.8-471.02 245.44-693.76 245.44-59.59 0-78.03-5.68-90.8-26.96-11.35-22.7-8.51-29.8 15.61-36.89 15.61-5.68 83.7-46.82 151.8-92.22 112.08-73.77 136.2-83.7 258.21-104.99 73.77-12.77 185.85-45.4 248.28-70.94 62.42-26.96 116.33-48.24 120.59-48.24 4.26-1.42 25.54 12.77 46.82 31.21zm-1437.17 103.57c35.46 4.26 122.01 35.47 191.53 69.52 70.94 34.05 178.76 75.19 241.19 92.22 106.4 28.38 133.36 43.98 134.78 75.19 0 42.56-368.87-62.42-517.84-147.55-109.24-61-191.53-123.43-141.87-106.41 15.61 5.68 56.75 12.77 92.22 17.02z" style="fill:#006d4e;fill-rule:nonzero"/><path d="M-1147.79 1944.48c-25.54 19.86-25.54 21.28 5.68 5.67 17.02-8.51 31.21-18.44 31.21-21.28 0-11.35-7.09-8.52-36.89 15.61z" style="fill:#000;fill-rule:nonzero"/><path d="M850.57 1505.74c3.44 17.35 7.29 34.63 11.48 51.86-1.31-7.32-2.89-15.45-4.75-24.52-2.2-9.43-4.46-18.65-6.73-27.34zm87.06 271.29c1.88 4.16 3.83 8.3 5.77 12.44-.22-3.31-2.39-7.71-5.77-12.44zm220.42 332.65a1247.97 1247.97 0 0 0 80.33 79.76l-52.15-52.16-28.18-27.61zM2462.38 115.77c180.7 60.7 319.04 138.34 392.44 220.22 86.11 95.99 159.52 237.17 132.7 255.52-9.88 5.65-63.53 36.7-118.58 67.76l-101.65 56.47-166.57-72c-93.17-39.53-201.87-84.71-242.81-100.23-60.7-22.58-79.06-38.11-104.47-86.11-15.53-32.47-55.06-100.22-87.52-151.05-32.47-50.82-63.53-98.82-69.17-108.7-11.3-18.35 70.58-66.35 166.57-97.41 77.65-24 80.46-24 199.05 15.53zM1441.74 324.7c-60.7 63.53-129.87 146.81-155.28 186.34-24 38.11-52.23 77.65-63.53 87.52-128.46 117.17-245.63 230.11-266.81 261.16-38.11 52.24-60.69 256.93-45.17 402.33 11.29 103.06 0 196.22-26.82 223.05-15.53 15.53-29.64-200.46-19.76-321.86 4.23-63.53 18.35-156.7 29.64-207.52 31.06-131.28 146.81-358.57 238.57-468.67 83.29-100.23 231.52-227.28 333.16-285.15 53.64-31.06 64.93-32.48 74.81-14.12 8.48 15.53-15.53 50.81-98.81 136.93zm585.85-136.94c32.47 9.88 101.65 101.65 184.93 248.46l45.17 80.46-90.35 110.11c-49.41 60.7-118.58 148.22-155.28 196.22l-64.94 86.11-208.92 11.29c-114.35 5.65-234.34 11.29-265.4 12.7l-56.47 1.41-81.88-158.11-81.87-158.1 50.82-81.88c29.64-45.17 100.23-131.28 159.52-190.57 103.05-105.87 111.52-110.11 207.51-129.87 166.59-36.7 290.81-45.18 357.16-28.24zm1181.57 659.26c62.11 127.06 84.7 276.69 72 464.44l-11.3 134.11-103.05 79.05c-57.89 45.18-110.11 80.47-117.17 80.47-7.06 0-18.35-14.12-26.82-32.47-8.47-16.94-66.35-97.41-129.87-177.87l-114.35-148.23 4.24-254.1 2.82-254.1 119.99-67.76 119.99-67.76 66.35 70.58c36.7 39.53 88.94 117.17 117.17 173.64v-.01zm-1112.4 321.86 143.99 223.05-32.46 74.82c-18.36 40.93-55.06 122.81-81.88 180.69-26.82 57.88-60.7 132.7-74.81 165.17-15.53 35.29-38.12 62.11-55.05 66.35-16.94 4.23-129.88 11.29-252.69 16.94l-223.05 9.88-42.35-40.94c-55.05-52.22-151.05-197.63-214.57-324.68l-50.82-100.22 53.65-132.7c29.64-73.41 76.22-177.87 104.46-232.93L1422 972.67l88.94-9.88c131.28-15.53 365.62-29.65 406.56-22.58 28.24 2.82 64.94 49.41 179.28 228.69v-.01zm773.59 238.57c59.29 73.41 119.99 158.11 135.52 187.76l28.24 52.22-43.77 104.47c-23.99 56.46-76.22 153.87-117.17 214.57-60.7 93.17-84.7 117.17-143.99 145.4-91.76 42.35-261.15 86.11-358.57 90.35l-77.64 2.83-101.65-125.64c-151.04-187.75-149.63-184.93-110.11-269.63 100.23-214.57 158.11-343.03 166.57-371.27 7.06-19.77 25.41-35.29 48-39.53 21.18-4.24 129.88-35.29 242.81-69.17 112.94-32.47 208.93-59.3 214.57-57.88 5.65 0 59.3 62.11 117.17 135.52zm-1733.53 42.35c40.94 0 49.41 9.88 124.22 143.99 80.46 143.99 132.7 220.22 203.28 297.86 33.89 36.7 36.7 49.41 36.7 180.7v139.76h-42.35c-22.59 0-83.29-15.53-134.11-32.47-81.88-28.24-100.23-43.76-180.7-136.93-91.76-110.11-200.46-310.57-231.52-426.32-14.12-56.47-12.7-77.64 7.06-142.58l24-76.23 74.81 25.41c39.53 14.12 93.17 25.41 118.58 26.82h.01zm1730.71 683.25 40.94 32.47-97.41 70.58c-203.29 151.05-468.67 244.22-690.31 244.22-59.29 0-77.65-5.65-90.35-26.82-11.29-22.59-8.47-29.64 15.53-36.7 15.53-5.64 83.3-46.58 151.05-91.76 111.52-73.41 135.52-83.29 256.93-104.46 73.4-12.71 184.92-45.17 247.04-70.58 62.11-26.83 115.76-48 119.99-48 4.24-1.41 25.41 12.71 46.59 31.06zm-1430.02 103.06c35.29 4.23 121.41 35.29 190.57 69.17 70.58 33.88 177.87 74.82 239.98 91.76 105.87 28.24 132.7 43.76 134.11 74.81 0 42.35-367.03-62.11-515.26-146.81-108.7-60.7-190.58-122.81-141.17-105.87 15.53 5.65 56.46 12.7 91.76 16.94z" style="fill:#fff"/></g><path style="fill:none" d="M0 0h3333.33v3333.33H0z"/></svg>