<svg xmlns="http://www.w3.org/2000/svg" width="516.481" height="254.72" version="1.0" viewBox="0 0 5380.01 2653.33" shape-rendering="geometricPrecision" text-rendering="geometricPrecision" image-rendering="optimizeQuality" fill-rule="evenodd" clip-rule="evenodd"><defs><style>.prefix__fil0,.prefix__fil1{fill:#006d4e}.prefix__fil0{fill-rule:nonzero}</style></defs><g id="prefix__Layer_x0020_1"><path class="prefix__fil0" d="M4097.26 437.81c-77.47 12.63-116.2 21.89-155.78 37.05-50.52 20.21-143.99 71.57-185.25 101.89-42.1 31.16-145.68 135.57-160.83 160.83-2.83 5.11-131.85 80.18-319.51 186.83 10.94 13.06 20.37 26.99 28.29 41.8 124.42-61.78 207.98-102.2 209.55-100.63 1.69 2.53 1.69 11.79-.84 20.21-3.06 9.69-18.54 21.57-191.94 119.45 5.49 16.41 9.39 33.48 11.71 51.24 81.61-40.78 136.23-67.33 137.29-66.28 1.69 1.69-1.69 32-6.74 67.37l-9.26 64-84.2 47.16c-10.95 5.87-27.63 14.91-48.54 26.31-4.69 16.19-10.46 31.61-17.31 46.28 148.54-76.87 144.49-72 148.38-61.64 2.52 7.58 1.69 19.37-2.52 26.1-4.21 7.58-90.1 59.79-191.15 116.2l-18.79 10.28-1.34 1.34c-20.12 19.99-42.68 37.42-67.69 52.3l-.13-.22c-24.23 14.65-49.12 27-74.64 36.98a539.923 539.923 0 01-51.1 17.08c-51.56 28.52-108.37 59.96-167.69 92.82h90.49c76.98-39.46 153.76-78.79 228.57-117.1 140.62-72.42 258.51-128.83 261.04-124.63 2.62 2.62 7.27 16.94 11.98 35.06-53.8-271.35 45.95-562.11 281.18-740.51 328.49-249.12 796.74-184.79 1045.86 143.7 249.12 328.49 184.79 796.74-143.7 1045.86-290.81 220.56-691.15 195.38-952.01-41.22l10.15 10.15-82.52 45.47c-45.47 24.42-123.78 68.21-175.15 96.84-42.36 24-117.26 65.76-180.06 100.46l-13.28 56.97c138.78-71.12 249-127.31 338.18-172.59 160.83-80.84 171.78-85.05 185.26-71.57 7.58 8.42 12.63 16 10.1 18.52-2.66 2.66-267.59 148.81-551.88 304.32l-6.28 26.94c250.44-131 599.93-309.37 605.31-309.37 3.37 0 31.16 11.79 61.47 26.11l54.73 26.1-83.36 46.31c-174.78 98.09-442.29 247.37-648.19 361.94l-7.09 31.38c125.76-63.66 254.04-129.1 344.56-176.06 397.45-206.31 517.87-260.2 517.87-232.41 0 4.04-557.48 320.65-883.66 502.47l-4.54 20.09c185.9-93.37 457.28-231.03 740.83-376.04 239.99-122.94 275.35-138.94 319.98-142.31 229.88-18.53 440.4-140.63 573.44-331.77 137.26-197.04 162.52-481.66 63.15-714.91-72.42-171.78-227.35-323.35-399.98-395.77-117.89-48.84-269.46-67.36-392.4-47.15zm-1490.81 1244.7l-16.47 9.12-52.83 29.27c5.18 8.22 9.98 16.6 14.4 25.14l45.64-23.44 9.26-40.09zm106.91-19.54l7.02-30.43-7.03 30.43zm346.69 838.41c-20.85 11.43-38.85 21.22-53.25 28.94-27.79 15.16-53.89 31.16-58.94 35.37-2.77 2.77 46.91-21.32 133.22-64.31h-21.02zM3186.9 974.85c-58.73 33.22-121.47 68.57-186.62 105.16 11.2 7.18 18.73 14.49 22.73 21.65.8 1.4 1.52 2.85 2.17 4.35 66.71-33.66 130.89-65.91 189.57-95.24-7.32-13.14-16.6-25.11-27.84-35.91zm-420.71 236.8c-74.96 42.22-143.23 80.76-201.59 113.78 5.98 2.01 12.1 3.96 18.35 5.87 70.37-36.25 145.63-74.77 221.73-113.52a450.333 450.333 0 01-38.48-6.13zm465.03-155.99c-59.17 33.16-130.84 73.17-217.72 121.59-6.32 7.63-14.51 14.33-24.56 20.13-10.3 5.97-22.85 10.82-37.65 14.54l-209.74 116.79c-16.89 9.36-33.56 18.61-49.95 27.73 13.19 2 26.79 3.68 40.78 5.04 114.08-57.96 256.57-130.57 432.72-220.55 24.02-12.19 47.43-24.04 69.91-35.4.1-3.07.15-6.16.15-9.28 0-14.32-1.32-27.85-3.95-40.59zm-669.87 373.48l-13.32 7.47-27.16 15.26c-104.72 58.89-178.83 101.31-193.55 110.8l1.82.59c18.28-7.8 92.24-44.3 256.6-127.43-8.55-2.22-16.68-4.45-24.39-6.69zm265.69 36.78c-42.59 23.43-83.94 46.2-121.01 66.62h38.07c44.17-23.07 90.57-47.26 129.78-67.68-15.09.71-30.04 1.06-44.85 1.06h-2zm-195.43 107.64l-24.78 13.67c-38.78 21.38-82.24 45.1-123.26 67.34 2.98 2.93 5.91 5.9 8.78 8.91 43.52-22.26 88.61-45.54 131.32-67.83l3.24-1.7 4.7-20.38zm844.52-216.75c4.57 25.55 3.52 34.48-3.67 40.95-3.53 3.21-97.98 56.65-237.63 134.79h140.58c112.78-56.38 129.63-60.79 136.63-54.79 3.54 3.09 6.84 6.65 9.18 9.94a741.24 741.24 0 01-45.08-130.89zm48.52 138.3l.01.32c0 3.37-29.47 22.74-64.84 42.1-13.2 7.06-36.58 19.83-65.91 35.94l-21.13 91.6c201.22-103.12 190.41-93.84 199.87-81.22 13.47 18.52 13.47 17.68-64.84 59.78-17.7 9.5-73.71 40.48-149.06 82.26l-19.26 83.52c43.67-22.37 81.11-41.52 108.54-55.47l179.36-92.63 25.3 24.79c-16-17.4-31.35-35.68-45.93-54.9-32.78-43.22-60.09-88.86-82.11-136.11zm-1343.42 423.14l-118.09 65.57-3.54 15.35c35.8-18.5 77.72-40.11 124.55-64.23-.43-4.41-1.04-8.48-1.85-12.24a91.06 91.06 0 00-1.07-4.45zm278.28 187.26c-.77 1.87-1.55 3.73-2.35 5.58.8-1.86 1.58-3.72 2.35-5.58zm-745.02 395.88c-86.04 47.38-164.02 90.24-209.09 114.83-69.89 37.89-81.68 51.36-16 18.52 18.33-9.5 117.99-60.77 259.09-133.35h-34zm247.74-.12c-43.96 24.33-75.52 41.73-88 48.43-34.52 18.52-66.52 37.05-71.57 42.1-3.97 3.97 63.46-29.04 186.5-91.11-8.92.27-17.89.47-26.92.58zm466.05-46.98c-55.91 31.04-106.23 59.02-147.33 81.94-141.47 78.31-175.15 103.57-50.52 37.89 32.03-17.3 110.82-57.98 193.41-100.55l4.45-19.28zm435.72 47.1c-39.45 22.55-65.17 37.76-67.72 39.89-1.91 1.91 30.31-13.59 83.5-39.89H2864z"/><path class="prefix__fil1" d="M3469.27 1325.87c2.05 10.35 4.35 20.66 6.85 30.94-.78-4.37-1.72-9.22-2.83-14.63-1.31-5.63-2.67-11.12-4.02-16.31zm51.93 161.82c1.12 2.48 2.29 4.95 3.44 7.42-.13-1.97-1.43-4.6-3.44-7.42zm131.48 198.42a746.335 746.335 0 0047.92 47.58l-31.11-31.11-16.81-16.47zm778.03-1189.36c107.78 36.21 190.3 82.52 234.09 131.36 51.36 57.26 95.15 141.47 79.15 152.41-5.89 3.37-37.89 21.89-70.73 40.42l-60.63 33.69-99.36-42.94c-55.57-23.58-120.41-50.53-144.83-59.79-36.21-13.47-47.16-22.74-62.31-51.37-9.26-19.37-32.84-59.78-52.2-90.1-19.37-30.31-37.89-58.94-41.26-64.84-6.74-10.94 42.1-39.58 99.36-58.1 46.31-14.31 48-14.31 118.73 9.26zM3821.9 621.37c-36.2 37.89-77.47 87.57-92.63 111.15-14.31 22.74-31.16 46.31-37.89 52.21-76.63 69.89-146.52 137.26-159.15 155.78-22.74 31.16-36.2 153.26-26.94 239.99 6.74 61.47 0 117.05-16 133.05-9.26 9.26-17.68-119.57-11.79-191.99 2.52-37.89 10.94-93.47 17.68-123.78 18.52-78.31 87.57-213.89 142.31-279.56 49.68-59.79 138.1-135.57 198.73-170.09 32-18.53 38.73-19.37 44.63-8.42 5.06 9.26-9.26 30.31-58.94 81.68zm349.46-81.68c19.37 5.89 60.63 60.63 110.31 148.2l26.94 48-53.89 65.68c-29.47 36.21-70.73 88.42-92.63 117.05l-38.74 51.36-124.62 6.74c-68.21 3.37-139.78 6.74-158.31 7.58l-33.69.84-48.84-94.31-48.84-94.31 30.31-48.84c17.68-26.94 59.79-78.31 95.15-113.68 61.47-63.15 66.52-65.68 123.78-77.47 99.37-21.89 173.46-26.95 213.04-16.84zm704.8 393.24c37.05 75.79 50.52 165.04 42.94 277.04l-6.74 80-61.47 47.15c-34.53 26.95-65.68 48-69.89 48-4.21 0-10.94-8.42-16-19.37-5.05-10.1-39.58-58.1-77.47-106.1l-68.21-88.42 2.53-151.57 1.69-151.57 71.57-40.42 71.57-40.42 39.57 42.1c21.89 23.58 53.05 69.89 69.89 103.57zm-663.54 191.99l85.89 133.05-19.37 44.63c-10.95 24.42-32.84 73.26-48.84 107.78-16 34.52-36.2 79.15-44.63 98.52-9.26 21.05-22.74 37.05-32.84 39.58-10.11 2.52-77.47 6.74-150.73 10.1l-133.05 5.89-25.26-24.42c-32.84-31.15-90.1-117.89-127.99-193.67l-30.31-59.78 32-79.15c17.68-43.79 45.47-106.1 62.31-138.94l30.31-60.63 53.05-5.89c78.31-9.26 218.09-17.69 242.51-13.47 16.84 1.69 38.74 29.47 106.94 136.41zm461.45 142.31c35.37 43.79 71.57 94.31 80.84 112l16.84 31.15-26.11 62.31c-14.31 33.68-45.47 91.78-69.89 127.99-36.21 55.57-50.52 69.89-85.89 86.73-54.74 25.26-155.78 51.36-213.89 53.89l-46.31 1.69-60.63-74.94c-90.1-111.99-89.26-110.31-65.68-160.83 59.79-127.99 94.31-204.62 99.36-221.46 4.21-11.79 15.16-21.05 28.63-23.58 12.63-2.53 77.47-21.05 144.83-41.26 67.37-19.37 124.63-35.37 127.99-34.53 3.37 0 35.37 37.05 69.89 80.84zm-1034.05 25.26c24.42 0 29.47 5.89 74.1 85.89 48 85.89 79.15 131.36 121.26 177.67 20.21 21.89 21.89 29.47 21.89 107.79v83.36h-25.26c-13.47 0-49.68-9.26-80-19.37-48.84-16.84-59.79-26.11-107.78-81.68-54.74-65.68-119.57-185.25-138.1-254.3-8.42-33.69-7.58-46.31 4.21-85.05l14.31-45.47 44.63 15.16c23.58 8.42 55.58 15.16 70.73 16h.01zm1032.36 407.56l24.42 19.37-58.1 42.1c-121.26 90.1-279.56 145.68-411.77 145.68-35.37 0-46.31-3.37-53.89-16-6.74-13.47-5.05-17.68 9.26-21.89 9.26-3.37 49.69-27.79 90.1-54.73 66.52-43.79 80.84-49.69 153.26-62.31 43.78-7.58 110.31-26.94 147.36-42.1 37.05-16 69.05-28.63 71.57-28.63 2.53-.84 15.16 7.58 27.79 18.52zm-853 61.47c21.05 2.52 72.42 21.05 113.68 41.26 42.1 20.21 106.1 44.63 143.15 54.74 63.15 16.84 79.15 26.1 80 44.63 0 25.26-218.93-37.05-307.35-87.57-64.84-36.21-113.68-73.26-84.21-63.15 9.26 3.37 33.68 7.57 54.74 10.1z"/><path class="prefix__fil0" d="M791.71 743.3c0 47.95-13.16 87.43-39.3 118.61-26.32 31.01-66.34 54.44-120.24 70.3l-1.08 4.33c42.72 12.26 75.17 30.1 97.16 53.36 22.17 23.25 33.17 55.88 33.17 98.24 0 82.74-33.89 147.46-101.67 193.96-67.78 46.51-163.68 69.76-287.7 69.76H31.36l181.52-786.3h286.8c94.64 0 167.1 15.5 217.04 46.69 49.93 31.19 74.99 74.81 74.99 131.05zm-213.07 32.81c0-23.07-9.19-39.84-27.58-50.11-18.39-10.28-43.98-15.5-76.61-15.5H382.7l-38.22 165.48h92.65c44.53 0 79.31-8.47 104.19-25.42 24.87-17.13 37.31-41.82 37.31-74.45zm-23.8 316.9c0-28.84-10.81-49.75-32.63-62.55-21.81-12.8-56.24-19.29-102.93-19.29H313.29l-45.24 195.76h102.2c59.13 0 104.56-9.74 136.64-29.02 31.91-19.29 47.95-47.59 47.95-84.9z"/><path id="prefix___1" class="prefix__fil0" d="M1644.71 763.49c0 62.91-19.11 115.91-57.5 158.81-38.4 42.9-90.49 75.17-156.29 96.98l181.34 332.58h-226.59l-147.81-288.78h-113.39l-66.52 288.78h-202.8l181.52-786.3h306.63c96.08 0 170.35 16.22 222.8 48.85 52.46 32.45 78.59 82.2 78.59 149.08zm-218.48 33.71c0-31.55-10.09-53.9-30.46-67.06-20.19-13.16-50.11-19.65-89.41-19.65h-100.41l-48.67 210.91h99.69c53.72 0 95.36-11 124.92-32.81 29.56-21.99 44.34-52.46 44.34-91.39z"/><path id="prefix___2" class="prefix__fil0" d="M2435.52 1351.87H2230.2l-18.02-161.15H1925.2l-92.29 161.15H1621.1l471.02-786.3h234.16l109.24 786.3zm-238.13-301.76l-32.09-279.94-160.25 279.94h192.34z"/><path id="prefix___3" class="prefix__fil0" d="M2829.03 1365.93c-67.24 0-127.26-5.77-179.9-17.3-52.64-11.72-98.06-26.14-136.46-43.26l40.74-188.19h22.17c36.23 32.99 78.95 58.59 127.98 76.61 48.85 18.21 101.67 27.22 157.91 27.22 57.86 0 100.41-7.93 127.44-23.61 27.22-15.68 40.74-38.04 40.74-67.42 0-10.81-2.17-20.37-6.67-28.3-4.33-7.75-12.8-15.68-25.6-23.43-12.62-7.75-29.93-15.32-52.09-22.89-21.99-7.57-50.47-16.22-85.26-26.14-38.4-10.63-72.83-21.99-103.29-34.25-30.46-12.44-56.42-27.04-78.05-43.8-21.45-17.31-37.68-37.13-48.85-59.67-11-22.53-16.58-49.57-16.58-80.76 0-78.96 34.79-141.87 104.37-188.74 69.58-47.05 164.76-70.48 285.54-70.48 58.04 0 112.85 4.69 164.58 14.24 51.56 9.56 95.36 22.35 131.23 38.57l-38.57 180.8h-21.63c-27.58-25.24-63.81-46.33-108.7-63.27-45.07-16.94-94.1-25.42-147.45-25.42-52.1 0-92.48 7.57-120.96 22.54-28.66 15.14-42.9 36.05-42.9 62.73 0 12.26 2.16 22.54 6.31 30.46 4.33 8.11 12.8 16.04 25.96 23.8 11.18 7.03 29.02 14.78 53.36 23.07 24.33 8.11 52.82 16.76 85.63 25.59 87.97 23.44 150.88 51.2 188.55 82.74 37.68 31.73 56.6 74.63 56.6 128.89 0 45.43-10.27 85.26-30.64 119.69-20.37 34.61-48.49 62.55-84.54 84-37.68 22.89-80.4 39.66-128.35 50.11-47.77 10.64-102.03 15.86-162.6 15.86z"/><path class="prefix__fil0" d="M356.56 2417.25c-103.99 0-184.19-25.56-240.59-76.85-56.4-51.29-84.6-124.62-84.6-220.15 0-75.61 12.52-144 37.37-205.52 25.03-61.33 59.4-114.57 103.11-159.33 42.66-43.54 93.95-77.56 153.7-102.06 59.75-24.5 122.5-36.66 188.24-36.66 52.88 0 102.23 5.46 147.7 16.22 45.3 10.93 86.37 26.79 122.85 47.94l-45.48 186.48h-22.74c-32.78-35.25-65.22-61.16-97.65-77.73-32.43-16.57-70.5-24.85-114.22-24.85-76.85 0-140.13 30.85-189.83 92.71-49.88 61.87-74.73 140.83-74.73 236.54 0 61.52 13.75 106.11 41.24 133.78 27.5 27.67 67.86 41.42 120.91 41.42 47.41 0 92.01-9.52 133.61-28.56 41.59-19.04 81.08-43.36 118.27-72.97h20.62l-44.94 183.66c-15.51 6.17-33.49 13.57-54.11 22.39-20.62 8.81-40.37 15.86-59.4 21.33-24.68 7.23-47.94 12.69-69.44 16.57-21.5 3.7-51.47 5.64-89.89 5.64z"/><path id="prefix___1_0" class="prefix__fil0" d="M1616.29 1918.61c0 62.93-10.58 124.97-31.91 185.78-21.33 60.98-52.35 114.22-92.89 159.52-44.42 49.53-96.06 87.6-155.29 113.86-59.22 26.26-127.26 39.48-204.28 39.48-104.87 0-187.01-27.14-246.23-81.26-59.4-54.29-89.01-128.84-89.01-223.85 0-66.63 11.28-130.26 34.02-190.36 22.74-60.28 55.17-113.33 97.47-158.98 41.24-44.42 92.36-79.85 153.17-106.46 60.99-26.44 127.26-39.66 199.17-39.66 105.23 0 187.54 27.14 246.76 81.61 59.4 54.29 89.01 127.79 89.01 220.32zm-283.07 262.45c23.27-30.67 41.6-66.28 54.82-106.81 13.22-40.36 19.92-87.07 19.92-139.77 0-54.99-13.22-98.18-39.48-129.37-26.26-31.2-63.8-46.71-112.63-46.71-32.08 0-62.57 7.4-91.65 22.03-29.08 14.63-55.87 36.84-80.2 66.8-23.8 28.55-42.83 64.16-57.28 106.63-14.46 42.66-21.68 90.42-21.68 143.48 0 58.87 13.57 103.29 40.54 133.25 26.97 29.96 64.33 44.94 112.1 44.94 33.13 0 64.86-8.11 95.53-24.5s57.28-39.66 80.02-69.97z"/><path id="prefix___2_1" class="prefix__fil0" d="M2493.18 1932.54c0 87.07-22.91 167.45-68.74 241.12-45.65 73.68-104.34 130.08-175.91 169.39-43.36 23.44-88.66 38.95-135.89 46.71-47.06 7.76-103.46 11.63-169.21 11.63h-278.31l177.49-768.84h248.88c73.32 0 132.37 5.64 177.14 17.1 44.77 11.28 80.9 26.61 108.4 45.83 37.9 26.26 66.63 58.87 86.54 98 19.74 38.95 29.61 85.31 29.61 139.07zm-208.34 17.98c0-35.07-6.52-65.22-19.57-90.42-13.04-25.38-33.14-45.65-59.93-61.16-12.33-6.87-25.03-11.99-37.89-15.69-12.87-3.52-27.5-6.35-44.06-7.93-15.87-1.41-33.84-2.12-54.11-2.12h-59.93l-112.28 486.48h81.78c22.56 0 40.89-.88 54.99-2.64 18.16-1.59 34.55-4.41 49.18-8.11 14.45-3.88 30.49-10.22 48.12-19.21 49.35-25.38 87.25-63.28 113.87-113.86 26.61-50.41 39.83-105.58 39.83-165.33z"/><path id="prefix___3_2" class="prefix__fil0" d="M3277.89 1632.54l-33.67 145.94h-359.39l-31.73 137.49h333.84l-34.02 145.94h-333.48l-44.6 193.53H3133l-32.96 145.95h-557.15l177.49-768.85z"/><path class="prefix__fil1" d="M5053.62 2645.65V441.98c0-90.13-29.01-115.6-119.14-115.6H0v-53.13H4934.48v-.21c59.04 0 100.11 10.29 130.04 38.8 30.49 29.03 42.44 69.84 42.44 130.14v2203.66h-53.33zm273.26-53.33V326.38h-.21V163.19c0-30.34-12.3-57.81-32.17-77.69-19.87-19.88-47.34-32.17-77.69-32.17v-.21H-.01V-.01h5216.82c90.13 0 163.19 73.06 163.19 163.19v2482.46h-53.13v-53.33z"/><path d="M4791.02 733.07c-123.44-162.77-301.19-260.11-488.76-285.87-187.59-25.78-385.02 20-547.78 143.44-162.78 123.46-260.12 301.2-285.89 488.78-25.77 187.59 20 385 143.43 547.77 123.47 162.8 301.22 260.13 488.78 285.9 187.59 25.77 385.02-20.01 547.78-143.44 162.79-123.45 260.12-301.2 285.89-488.78 25.78-187.6-20-385.03-143.45-547.8zm-486.99-299.06c190.94 26.23 371.9 125.32 497.57 291.03 125.68 165.71 172.29 366.67 146.06 557.59-26.23 190.94-125.32 371.89-291.02 497.56-165.72 125.69-366.68 172.3-557.6 146.07-190.93-26.23-371.87-125.31-497.54-291l-.03-.04c-125.67-165.71-172.29-366.66-146.06-557.58 26.23-190.94 125.32-371.88 291.02-497.56 165.73-125.69 366.68-172.31 557.61-146.07z" fill-rule="nonzero"/></g></svg>